<svg width="51" height="53" viewBox="0 0 51 53" fill="black" xmlns="http://www.w3.org/2000/svg">
<g id="icon/create">
<g id="Group 150">
<path id="Vector" d="M30.7924 31.4056C30.7924 32.8281 29.6616 33.9811 28.2665 33.9811H23.2146V39.1321C23.2146 40.5545 22.0838 41.7075 20.6887 41.7075C19.2936 41.7075 18.1627 40.5545 18.1627 39.1321V33.9811H13.1108C11.7158 33.9811 10.5849 32.8281 10.5849 31.4056C10.5849 29.9832 11.7158 28.8302 13.1108 28.8302H18.1627V23.6792C18.1627 22.2568 19.2936 21.1038 20.6887 21.1038C22.0838 21.1038 23.2146 22.2568 23.2146 23.6792V28.8302H28.2665C29.6616 28.8302 30.7924 29.9832 30.7924 31.4056Z" fill="black"/>
<path id="Vector_2" fill-rule="evenodd" clip-rule="evenodd" d="M10.2 10.9H7.65C3.42503 10.9 0 14.3922 0 18.7V44.7C0 49.0079 3.42503 52.5 7.65 52.5H33.15C37.3751 52.5 40.8 49.0079 40.8 44.7V42.1H43.35C47.5751 42.1 51 38.6079 51 34.3V8.3C51 3.99219 47.5751 0.5 43.35 0.5H17.85C13.625 0.5 10.2 3.99219 10.2 8.3V10.9ZM15.3 10.9H33.15C37.3751 10.9 40.8 14.3922 40.8 18.7V36.9H43.35C44.7584 36.9 45.9 35.736 45.9 34.3V8.3C45.9 6.86407 44.7584 5.7 43.35 5.7H17.85C16.4417 5.7 15.3 6.86405 15.3 8.3V10.9ZM5.1 44.7C5.1 46.136 6.24169 47.3 7.65 47.3H33.15C34.5584 47.3 35.7 46.136 35.7 44.7V18.7C35.7 17.2641 34.5584 16.1 33.15 16.1H7.65C6.24169 16.1 5.1 17.264 5.1 18.7V44.7Z" fill="black"/>
</g>
</g>
</svg>
