<svg width="53" height="53" viewBox="0 0 53 53" fill="none" xmlns="http://www.w3.org/2000/svg">
<path d="M51.2508 10.3981L43.6008 2.74801C43.1226 2.27021 42.4743 2.00182 41.7983 2.00182C41.1223 2.00182 40.474 2.27021 39.9959 2.74801L1.74546 40.9984C1.26766 41.4766 0.999268 42.1249 0.999268 42.8009C0.999268 43.4768 1.26766 44.1251 1.74546 44.6033L9.39554 52.2534C9.87374 52.7314 10.5222 53 11.1984 53C11.8746 53 12.5231 52.7314 13.0013 52.2534L51.2517 14.003C51.7295 13.5248 51.9979 12.8765 51.9979 12.2005C51.9979 11.5246 51.7286 10.8763 51.2508 10.3981ZM41.7987 16.2453L37.7544 12.2001L41.7987 8.15662L45.8422 12.2001L41.7987 16.2453ZM11.1984 46.8456L7.15491 42.8004L34.1487 15.8067L38.193 19.8502L11.1984 46.8456ZM13.7484 12.2001C14.4247 12.2001 15.0734 12.4688 15.5516 12.947C16.0298 13.4252 16.2985 14.0738 16.2985 14.7501C16.2985 15.4264 16.5671 16.0751 17.0453 16.5533C17.5236 17.0315 18.1722 17.3002 18.8485 17.3002C19.5248 17.3002 20.1734 17.0315 20.6516 16.5533C21.1299 16.0751 21.3985 15.4264 21.3985 14.7501C21.3985 14.0738 21.6672 13.4252 22.1454 12.947C22.6236 12.4688 23.2722 12.2001 23.9485 12.2001C24.6249 12.2001 25.2735 11.9314 25.7517 11.4532C26.2299 10.975 26.4986 10.3264 26.4986 9.65008C26.4986 8.97377 26.2299 8.32516 25.7517 7.84694C25.2735 7.36872 24.6249 7.10005 23.9485 7.10005C23.2722 7.10005 22.6236 6.83139 22.1454 6.35317C21.6672 5.87494 21.3985 5.22634 21.3985 4.55003C21.3985 3.87372 21.1299 3.22511 20.6516 2.74689C20.1734 2.26866 19.5248 2 18.8485 2C18.1722 2 17.5236 2.26866 17.0453 2.74689C16.5671 3.22511 16.2985 3.87372 16.2985 4.55003C16.2985 5.22634 16.0298 5.87494 15.5516 6.35317C15.0734 6.83139 14.4247 7.10005 13.7484 7.10005C13.0721 7.10005 12.4235 7.36872 11.9453 7.84694C11.4671 8.32516 11.1984 8.97377 11.1984 9.65008C11.1984 10.3264 11.4671 10.975 11.9453 11.4532C12.4235 11.9314 13.0721 12.2001 13.7484 12.2001ZM49.4488 32.6003C48.7725 32.6003 48.1239 32.3317 47.6457 31.8534C47.1674 31.3752 46.8988 30.7266 46.8988 30.0503C46.8988 29.374 46.6301 28.7254 46.1519 28.2472C45.6737 27.7689 45.0251 27.5003 44.3488 27.5003C43.6725 27.5003 43.0238 27.7689 42.5456 28.2472C42.0674 28.7254 41.7987 29.374 41.7987 30.0503C41.7987 30.7266 41.5301 31.3752 41.0518 31.8534C40.5736 32.3317 39.925 32.6003 39.2487 32.6003C38.5724 32.6003 37.9238 32.869 37.4456 33.3472C36.9673 33.8254 36.6987 34.474 36.6987 35.1504C36.6987 35.8267 36.9673 36.4753 37.4456 36.9535C37.9238 37.4317 38.5724 37.7004 39.2487 37.7004C39.925 37.7004 40.5736 37.969 41.0518 38.4473C41.5301 38.9255 41.7987 39.5741 41.7987 40.2504C41.7987 40.9267 42.0674 41.5753 42.5456 42.0536C43.0238 42.5318 43.6725 42.8004 44.3488 42.8004C45.0251 42.8004 45.6737 42.5318 46.1519 42.0536C46.6301 41.5753 46.8988 40.9267 46.8988 40.2504C46.8988 39.5741 47.1674 38.9255 47.6457 38.4473C48.1239 37.969 48.7725 37.7004 49.4488 37.7004C50.1251 37.7004 50.7737 37.4317 51.252 36.9535C51.7302 36.4753 51.9988 35.8267 51.9988 35.1504C51.9988 34.474 51.7302 33.8254 51.252 33.3472C50.7737 32.869 50.1251 32.6003 49.4488 32.6003Z" fill="black"/>
</svg>
